<svg width="689" height="280" viewBox="0 0 689 280" fill="none" xmlns="http://www.w3.org/2000/svg">
<path d="M278.191 234.801C279.864 234.801 281.489 235.231 283.066 236.092C284.643 236.953 285.885 238.172 286.769 239.75C287.653 241.352 288.107 243.002 288.107 244.724C288.107 246.445 287.677 248.071 286.793 249.649C285.909 251.227 284.69 252.447 283.137 253.331C281.561 254.192 279.912 254.646 278.215 254.646C276.519 254.646 274.846 254.216 273.269 253.331C271.692 252.47 270.474 251.227 269.59 249.649C268.706 248.071 268.275 246.421 268.275 244.724C268.275 243.026 268.729 241.352 269.614 239.75C270.498 238.172 271.74 236.929 273.317 236.092C274.894 235.231 276.519 234.801 278.191 234.801ZM278.191 236.45C276.806 236.45 275.444 236.809 274.129 237.526C272.815 238.244 271.788 239.272 271.047 240.587C270.307 241.902 269.924 243.289 269.924 244.724C269.924 246.158 270.283 247.521 271.023 248.836C271.764 250.151 272.768 251.179 274.082 251.897C275.396 252.638 276.758 252.996 278.191 252.996C279.625 252.996 280.987 252.638 282.301 251.897C283.615 251.155 284.643 250.151 285.359 248.836C286.076 247.521 286.459 246.158 286.459 244.724C286.459 243.289 286.1 241.902 285.359 240.587C284.619 239.248 283.591 238.244 282.277 237.526C280.963 236.809 279.601 236.45 278.215 236.45M273.843 250.199V239.535H277.499C278.765 239.535 279.649 239.631 280.222 239.822C280.772 240.013 281.226 240.372 281.561 240.85C281.895 241.352 282.062 241.854 282.062 242.404C282.062 243.193 281.775 243.863 281.226 244.436C280.676 245.01 279.936 245.345 279.004 245.417C279.386 245.584 279.673 245.751 279.912 245.991C280.342 246.421 280.868 247.114 281.489 248.095L282.779 250.199H280.676L279.745 248.525C279.004 247.21 278.406 246.373 277.953 246.039C277.642 245.799 277.188 245.68 276.567 245.68H275.563V250.223H273.843V250.199ZM275.563 244.197H277.642C278.646 244.197 279.314 244.054 279.697 243.743C280.055 243.456 280.246 243.05 280.246 242.572C280.246 242.261 280.151 241.974 279.983 241.735C279.816 241.495 279.577 241.304 279.267 241.185C278.956 241.065 278.383 240.994 277.546 240.994H275.587V244.221L275.563 244.197Z" fill="#560B18"/>
<path d="M358.691 131.069C354.798 131.141 350.901 131.26 346.985 131.547L346.505 131.141C343.948 123.394 342.467 118.755 340.315 112.706C339.168 112.777 338.021 112.777 336.876 112.777C335.395 118.707 334.2 124.948 333.101 130.949L332.623 131.284C329.66 131.284 321.321 131.475 321.321 131.475L320.986 131.069C322.946 122.987 329.803 96.0162 331.404 84.1567L331.81 83.8221C335.108 83.8221 343.854 83.6787 349.157 83.6787C356.899 83.6787 363.612 86.1653 363.612 95.4664C363.612 102.879 359.17 108.785 350.901 110.745C356.683 125.067 357.83 127.697 358.977 130.519L358.643 131.069H358.691ZM341.391 105.007C346.984 105.007 351.883 102.52 351.883 96.5901C351.883 92.2147 348.391 91.6648 344.879 91.6648C344.475 91.6648 343.878 91.7363 341.847 91.7363C341.513 93.0756 341.105 94.4385 338.692 104.983H341.391V105.007Z" fill="#560B18"/>
<path d="M385.925 94.8267C390.155 94.8267 401.339 96.5721 401.339 109.292C401.339 122.682 393.883 132.103 380.764 132.103C367.647 132.103 364.686 123.686 364.686 117.446C364.686 112.998 366.5 94.8267 385.949 94.8267M380.932 124.978C388.054 124.978 390.155 112.664 390.155 107.81C390.155 105.515 389.487 101.952 385.112 101.952C377.036 101.952 375.889 116.896 375.889 118.976C375.889 123.543 378.375 124.954 380.932 124.954" fill="#560B18"/>
<path d="M401.477 130.92C402.478 126.688 403.437 123.245 404.297 119.348L407.522 105.36C409.482 96.9436 411.486 88.6708 412.778 80.1348L413.328 79.6565C417.15 79.0587 420.996 78.3654 424.821 77.6958L425.155 78.1742C424.629 80.5889 424.008 82.8846 423.411 85.2518L420.257 97.8285C421.475 97.0155 424.747 94.8635 429.122 94.8635C437.985 94.8635 440.424 102.73 440.424 108.062C440.424 114.733 437.34 122.193 432.084 126.425C426.157 131.207 419.181 131.351 412.036 131.351H407.33C405.515 131.351 403.696 131.351 401.881 131.422L401.477 130.944V130.92ZM415.787 123.986C417.747 123.986 421.164 123.795 424.126 120.902C426.946 118.152 428.906 113.298 428.906 109.329C428.906 104.212 426.086 102.802 423.651 102.802C421.211 102.802 419.42 104.141 418.678 104.619L414.235 124.01H415.787V123.986Z" fill="#560B18"/>
<path d="M464.462 94.8267C468.692 94.8267 479.876 96.5721 479.876 109.292C479.876 122.682 472.42 132.103 459.304 132.103C446.185 132.103 443.223 123.686 443.223 117.446C443.223 112.998 445.038 94.8267 464.489 94.8267M459.493 124.978C466.614 124.978 468.716 112.664 468.716 107.81C468.716 105.515 468.048 101.952 463.676 101.952C455.6 101.952 454.453 116.896 454.453 118.976C454.453 123.543 456.936 124.954 459.493 124.954" fill="#560B18"/>
<path d="M500.759 131.263C497.939 131.932 495.504 132.004 494.573 132.004C486.901 132.004 484.489 128.704 484.489 124.137C484.489 121.579 485.228 118.423 486.709 112.493L489.003 103.216H488.264C486.783 103.216 485.707 103.288 484.297 103.359L483.889 102.881C484.631 100.394 485.11 98.5775 485.778 96.0905L486.257 95.684H490.771C491.513 92.5281 492.039 90.3043 492.66 87.0765L493.139 86.5982C497.248 85.6658 500.139 84.9246 504.177 83.7051L504.582 84.1834C504.055 86.0723 503.698 87.7459 501.62 95.8992C504.177 95.8277 505.992 95.8277 508.549 95.708L508.812 96.2579C507.928 98.6729 507.331 100.418 506.734 102.977L506.137 103.383C503.843 103.311 502.24 103.311 499.946 103.311L497.126 115.099C496.458 117.921 495.838 120.479 495.838 121.483C495.838 122.703 496.576 124.233 499.208 124.233C500.952 124.233 502.17 123.683 502.908 123.42L503.317 123.755C502.504 126.385 502.048 128.202 501.309 130.761L500.83 131.287L500.759 131.263Z" fill="#560B18"/>
<path d="M521.861 114.157L520.785 119.13C519.975 123.028 519.304 126.925 518.636 130.894L518.157 131.229C514.264 131.229 510.367 131.301 506.521 131.492L506.188 131.014C507.739 125.084 509.197 119.035 510.56 112.985L511.302 109.686C512.233 105.502 513.117 101.27 513.596 97.109L514.071 96.6306C518.039 96.0807 522.006 95.483 525.899 94.7418L526.307 95.2917C524.752 101.341 523.2 107.797 521.861 114.133M529.674 79.4393C529.077 82.4758 528.264 85.4407 527.525 88.3818L526.975 88.9316C523.342 89.41 519.712 89.9359 516.008 90.4858L515.6 89.9359C516.271 86.971 516.939 83.9345 517.56 80.9216L518.157 80.4436C521.79 79.9652 525.97 79.3674 529.245 78.9609L529.65 79.4393H529.674Z" fill="#560B18"/>
<path d="M552.103 130.429C550.359 131.17 547.66 132.103 543.622 132.103C533.609 132.103 527.611 125.838 527.611 116.418C527.611 106.997 532.655 100.613 537.577 97.6479C542.283 94.8267 547.542 94.8267 548.807 94.8267C551.84 94.8267 555.999 95.496 558.961 97.5764L559.106 98.1263C558.172 100.876 557.551 102.908 556.812 105.801L556.141 105.945C553.847 102.717 550.146 102.717 549.691 102.717C542.235 102.717 539.203 110.392 539.203 115.581C539.203 120.1 541.497 124.117 546.871 124.117C550.433 124.117 552.437 122.634 554.063 121.439L554.66 121.773C553.8 124.81 553.25 126.962 552.511 129.975L552.103 130.453V130.429Z" fill="#560B18"/>
<path d="M559.806 120.817C562.697 124.117 566.189 125.193 569.221 125.193C572.78 125.193 574.933 123.591 574.933 121.295C574.933 119.406 573.786 118.593 570.368 116.848L568.887 116.107C566.475 114.887 561.887 112.664 561.887 106.949C561.887 101.235 566.043 94.8267 577.297 94.8267C582.887 94.8267 586.234 96.2371 588.72 97.5045L589.054 98.1023C588.17 100.732 587.644 102.621 586.976 105.299L586.379 105.443C583.15 101.617 579.446 101.545 578.374 101.545C575.149 101.545 573.067 102.956 573.067 104.988C573.067 106.542 574.359 107.547 577.179 108.886L578.731 109.627C581.359 110.894 586.473 113.333 586.473 119.645C586.473 125.958 581.551 132.175 570.2 132.175C564.013 132.175 560.045 130.501 557.347 128.803L557.154 128.205C558.015 125.575 558.494 123.686 559.232 121.008L559.833 120.817H559.806Z" fill="#560B18"/>
<path d="M649.141 113.279C646.776 116.316 643.885 119.066 640.731 122.102C642.546 124.996 644.364 127.889 646.25 130.782L646.058 131.38H642.165C638.127 131.38 636.861 131.38 634.159 131.523L633.633 131.117C633.157 130.041 632.56 129.108 631.963 128.152C627.851 130.854 624.029 132.193 619.464 132.193C611.604 132.193 606.203 127.411 606.203 120.429C606.203 117.129 607.613 113.758 609.978 111.415C611.867 109.526 613.874 108.33 619.393 105.7C617.433 102.137 616.766 99.6984 616.766 96.614C616.766 89.6801 622.143 84.9697 630.219 84.9697C637.671 84.9697 642.522 88.7477 642.522 94.6054C642.522 99.9855 638.963 103.142 631.963 107.182C633.515 110.004 635.067 112.777 636.74 115.384C641.925 109.86 642.259 109.382 644.266 105.7H644.938C646.226 108.115 647.754 110.41 649.235 112.777L649.165 113.303L649.141 113.279ZM623.263 112.873C618.82 115.216 617.41 116.842 617.41 119.472C617.41 122.102 619.299 123.92 622.045 123.92C623.934 123.92 625.607 123.25 628.161 121.505C626.609 118.612 624.865 115.79 623.263 112.897M630.506 91.4016C628.424 91.4016 626.68 93.1471 626.68 95.299C626.68 96.8532 627.088 98.0009 628.569 100.942C632.726 98.3116 634.018 96.9726 634.018 94.7491C634.018 92.7885 632.537 91.3777 630.529 91.3777" fill="#560B18"/>
<path d="M343.924 69.3174H342.18C340.172 69.3174 338.688 69.3889 336.659 69.4608L336.324 68.9824C338.401 60.4944 345.405 30.1522 346.741 22.214L347.149 21.8075H349.109C351.116 21.8075 352.597 21.8075 354.628 21.6641L354.891 22.0705C352.668 30.9652 347.365 53.2255 344.474 68.9824L343.947 69.3174H343.924Z" fill="#560B18"/>
<path d="M383.316 69.389H369.313C364.823 69.389 361.716 69.389 357.199 69.5327L356.268 69.6042L355.934 69.1262C360.498 51.2173 364.344 32.0411 366.422 22.214L366.901 21.7358H367.498C369.458 21.7358 372.612 21.8075 375.574 21.8075H383.363C387.068 21.8075 390.772 21.6641 393.255 21.6641L393.663 22.0705C393.066 23.8877 392.728 25.1789 392.253 27.0439L391.703 27.4503C387.594 27.4503 381.953 27.259 376.242 27.259C375.095 27.259 372.946 27.3308 372.946 27.3308L369.647 42.0117C383.1 41.9398 385.108 41.8204 387.999 41.8204L388.262 42.2988C387.712 44.0442 387.378 45.2634 386.922 47.0089L386.325 47.4872C383.961 47.4154 373.685 47.4154 368.5 47.4154C367.427 52.1258 366.351 56.9077 364.87 63.6985C367.69 63.6985 383.218 63.4354 385.037 63.4354L385.371 63.7701C384.774 65.7307 384.295 67.0697 383.745 69.0304L383.269 69.4369L383.316 69.389Z" fill="#560B18"/>
<path d="M419.763 69.389H405.763C401.27 69.389 398.166 69.389 393.649 69.5327L392.718 69.6042L392.381 69.1262C396.945 51.2173 400.794 32.0411 402.872 22.214L403.348 21.7358H403.949C405.905 21.7358 409.059 21.8075 412.025 21.8075H419.814C423.515 21.8075 427.219 21.6641 429.705 21.6641L430.11 22.0705C429.513 23.8877 429.179 25.1789 428.7 27.0439L428.15 27.4503C424.041 27.4503 418.404 27.259 412.693 27.259C411.546 27.259 409.393 27.3308 409.393 27.3308L406.097 42.0117C419.551 41.9398 421.558 41.8204 424.449 41.8204L424.712 42.2988C424.163 44.0442 423.825 45.2634 423.373 47.0089L422.776 47.4872C420.411 47.4154 410.136 47.4154 404.95 47.4154C403.874 52.1258 402.802 56.9077 401.317 63.6985C404.137 63.6985 419.669 63.4354 421.484 63.4354L421.821 63.7701C421.221 65.7307 420.745 67.0697 420.195 69.0304L419.716 69.4369L419.763 69.389Z" fill="#560B18"/>
<path d="M456.215 69.389H442.215C437.721 69.389 434.614 69.389 430.1 69.5327L429.166 69.6042L428.832 69.1262C433.396 51.2173 437.242 32.0411 439.324 22.214L439.799 21.7358H440.396C442.356 21.7358 445.511 21.8075 448.473 21.8075H456.262C459.966 21.8075 463.67 21.6641 466.156 21.6641L466.561 22.0705C465.964 23.8877 465.63 25.1789 465.151 27.0439L464.601 27.4503C460.492 27.4503 454.852 27.259 449.144 27.259C447.997 27.259 445.845 27.3308 445.845 27.3308L442.549 42.0117C455.999 41.9398 458.006 41.8204 460.897 41.8204L461.16 42.2988C460.634 44.0442 460.276 45.2634 459.824 47.0089L459.227 47.4872C456.859 47.4154 446.587 47.4154 441.402 47.4154C440.326 52.1258 439.249 56.9077 437.768 63.6985C440.589 63.6985 456.12 63.4354 457.935 63.4354L458.269 63.7701C457.672 65.7307 457.193 67.0697 456.647 69.0304L456.167 69.4369L456.215 69.389Z" fill="#560B18"/>
<path d="M307.082 244.074C307.823 245.485 311.861 249.262 318.313 249.262C326.174 249.262 329.543 244.743 329.543 240.655C329.543 236.566 326.915 234.534 321.944 231.975L319.722 230.828C315.35 228.604 311.049 226.045 311.049 219.255C311.049 212.464 315.684 205.124 328.276 205.124C334.537 205.124 338.573 207.013 341.252 208.83L341.467 209.38C340.796 211.389 340.246 212.871 339.649 214.975L339.052 215.118C336.496 211.819 331.646 210.671 328.754 210.671C321.753 210.671 318.671 214.568 318.671 218.538C318.671 222.172 320.822 223.654 326.269 226.476L328.229 227.48C332.601 229.776 337.308 233.003 337.308 239.794C337.308 246.585 332.123 254.929 319.149 254.929C312.626 254.929 307.322 252.897 305.099 250.769L304.908 250.171C305.577 248.019 305.912 246.465 306.461 244.241L307.13 244.098L307.082 244.074Z" fill="#560B18"/>
<path d="M362.124 218.039C370.463 218.039 376.508 222.271 376.508 231.237C376.508 238.315 373.283 254.597 357.418 254.597C353.187 254.597 343.441 253.593 343.441 241.136C343.441 230.233 349.365 218.063 362.124 218.063M357.539 249.6C367.693 249.6 369.367 233.174 369.367 230.902C369.367 224.375 365.399 222.964 362.363 222.964C353.093 222.964 350.536 236.76 350.536 241.614C350.536 245.918 352.543 249.624 357.539 249.624" fill="#560B18"/>
<path d="M404.027 252.685C401.662 254.024 397.695 254.574 395.353 254.574C386.68 254.574 380.709 248.046 380.709 239.51C380.709 233.915 383.121 225.236 390.529 220.74C394.422 218.397 398.531 218.039 400.349 218.039C405.056 218.039 408.76 219.186 410.767 220.74L410.956 221.219C410.217 223.179 409.809 224.59 409.286 226.527L408.615 226.718C407.542 224.901 404.576 223.347 401.017 223.347C392.607 223.347 388.043 232.241 388.043 238.96C388.043 246.827 394.159 249.122 397.384 249.122C398.531 249.122 402.019 248.979 405.582 245.894L406.108 246.157C405.366 248.381 404.961 249.935 404.435 252.206L404.027 252.685Z" fill="#560B18"/>
<path d="M417.047 253.697C414.419 253.697 412.554 253.768 409.926 253.888L409.592 253.481C411.741 245.687 416.521 223.474 416.855 219.84L417.334 219.361C420.08 219.027 421.969 218.763 424.668 218.285L425.002 218.763C424.668 218.692 419.078 244.348 417.55 253.362L417.071 253.697H417.047ZM426.675 209.367C424.047 209.702 422.232 209.917 419.628 210.299L419.22 209.75C419.77 207.454 420.154 205.852 420.63 203.556L421.227 203.078C423.855 202.744 425.673 202.529 428.23 202.146L428.753 202.624C428.156 204.848 427.751 206.521 427.201 208.817L426.652 209.343L426.675 209.367Z" fill="#560B18"/>
<path d="M455.007 251.869C452.713 253.208 449.225 254.571 444.04 254.571C432.546 254.571 428.438 247.709 428.438 239.962C428.438 228.174 435.63 218.012 447.265 218.012C455.199 218.012 460.86 221.646 460.86 230.589C460.86 233.339 460.263 235.706 460.05 236.71L459.571 237.045C456.083 237.045 449.68 236.973 443.824 236.973C440.791 236.973 438.568 236.973 435.559 237.117C435.485 237.523 435.367 238.742 435.367 240.01C435.367 248.832 443.038 249.024 445.45 249.024C451.04 249.024 453.931 246.872 456.535 244.983L457.085 245.318C456.346 247.541 455.867 249.096 455.341 251.367L455.007 251.845V251.869ZM454.123 232.287C454.386 230.733 454.457 230.063 454.457 229.322C454.316 223.201 449.272 222.723 447.528 222.723C439.786 222.723 437.182 229.848 436.443 232.334C436.443 232.334 449.822 232.263 454.123 232.263" fill="#560B18"/>
<path d="M477.732 253.642C475.509 254.192 473.765 254.24 472.881 254.24C466.478 254.24 464.876 250.94 464.876 247.569C464.876 245.01 466.286 239.08 468.246 230.951L469.916 223.945H468.58C467.288 223.945 466.357 223.945 465.092 224.017L464.758 223.539C465.233 221.985 465.567 220.789 465.976 219.092L466.451 218.757C468.199 218.828 469.346 218.828 471.09 218.828C471.899 215.744 472.308 213.521 472.905 210.412L473.384 209.934C476.012 209.408 477.827 208.93 480.384 208.26L480.718 208.667C480.168 210.484 479.858 211.823 479.379 213.64L478.09 218.828C480.836 218.828 482.725 218.828 485.424 218.685L485.758 219.163C485.161 220.765 484.827 221.985 484.351 223.611L483.872 224.017C481.315 223.945 479.5 223.945 476.943 223.945L473.31 239.152C472.976 240.491 472.021 244.675 472.021 246.015C472.021 248.167 473.573 248.908 475.317 248.908C477.061 248.908 478.687 248.238 479.284 248.023L479.618 248.358C479.092 250.103 478.687 251.323 478.208 253.068L477.732 253.594V253.642Z" fill="#560B18"/>
<path d="M518.658 219.227C510.582 232.283 491.684 263.988 489.127 269.702L488.577 270.109H485.544C484.205 270.109 482.916 270.109 481.577 270.18L481.385 269.702C483.345 266.737 489.987 256.456 491.613 253.491C489.056 236.73 486.57 220.112 486.236 219.299L486.715 218.821C489.272 218.821 491.087 218.678 493.715 218.486L494.265 218.821C494.599 222.527 494.815 225.157 495.267 228.792L497.227 244.668L503.751 233.096C506.308 228.576 508.865 224.01 511.277 219.18L511.827 218.773C512.566 218.845 513.308 218.845 514.05 218.845C515.673 218.845 516.796 218.773 518.348 218.702L518.686 219.227H518.658Z" fill="#560B18"/>
<path d="M353.113 192.651C348.886 192.651 345.85 192.722 341.623 192.914L341.215 192.436C341.215 189.734 341.215 187.797 340.881 180.05H339.4C338.06 180.05 335.027 179.978 332.47 179.978H326.759C323.199 187.438 322.196 189.399 320.905 192.221L320.428 192.627H317.728C314.693 192.627 312.614 192.699 309.651 192.818L309.389 192.077C316.174 180.098 328.074 157.55 334.334 145.5L334.884 145.165C340.26 145.093 344.106 145.022 349.483 144.902L349.817 145.308C350.964 162.141 351.969 175.244 353.521 192.292L353.113 192.627V192.651ZM330.654 171.921C331.921 171.992 332.876 171.992 334.143 171.992H335.768C337.585 171.992 339.47 171.992 340.665 171.921C340.331 158.674 340.142 152.745 340.142 152.745L330.654 171.921Z" fill="#560B18"/>
<path d="M389.434 192.657C385.537 192.657 382.768 192.8 378.946 192.919L378.608 192.441L379.421 189.07C377.677 190.959 373.305 193.445 368.933 193.445C366.376 193.445 359.518 192.513 359.518 184.431C359.518 181.873 360.452 177.76 361.12 174.867L362.672 168.196C363.556 164.371 364.227 161.669 364.824 157.771L365.3 157.365C369.267 157.221 372.04 157.102 375.933 156.815L376.341 157.365C373.855 168.077 371.156 177.952 371.156 181.06C371.156 182.471 371.632 184.957 375.12 184.957C377.748 184.957 379.971 183.284 380.831 182.614L383.652 169.559C384.465 165.709 385.278 161.741 386.016 157.771L386.566 157.365C390.533 157.221 393.354 157.102 397.392 156.815L397.726 157.365C396.1 163.821 394.976 168.603 393.495 175.274L392.014 182.016C391.201 185.794 390.604 188.4 389.936 192.25L389.457 192.657H389.434Z" fill="#560B18"/>
<path d="M416.684 192.671C413.864 193.34 411.428 193.412 410.497 193.412C402.826 193.412 400.414 190.112 400.414 185.545C400.414 182.987 401.152 179.831 402.633 173.901L404.927 164.624H404.188C402.708 164.624 401.631 164.696 400.221 164.767L399.816 164.289C400.555 161.802 401.034 159.985 401.702 157.498L402.181 157.092H406.695C407.437 153.936 407.963 151.712 408.584 148.484L409.063 148.006C413.172 147.073 416.063 146.332 420.101 145.113L420.506 145.591C419.956 147.48 419.622 149.154 417.544 157.307C420.101 157.235 421.916 157.235 424.473 157.116L424.736 157.666C423.853 160.081 423.255 161.826 422.658 164.385L422.061 164.791C419.767 164.719 418.165 164.719 415.871 164.719L413.051 176.507C412.383 179.328 411.786 181.887 411.786 182.891C411.786 184.111 412.528 185.641 415.156 185.641C416.9 185.641 418.118 185.091 418.86 184.828L419.265 185.163C418.452 187.793 418 189.61 417.257 192.168L416.778 192.694L416.684 192.671Z" fill="#560B18"/>
<path d="M444.775 156.285C449.005 156.285 460.188 158.031 460.188 170.751C460.188 184.141 452.733 193.561 439.617 193.561C426.497 193.561 423.535 185.145 423.535 178.88C423.535 174.433 425.35 156.261 444.802 156.261M439.782 186.412C446.903 186.412 449.005 174.098 449.005 169.244C449.005 166.949 448.337 163.387 443.965 163.387C435.889 163.387 434.742 178.331 434.742 180.411C434.742 184.977 437.225 186.388 439.782 186.388" fill="#560B18"/>
<path d="M513.817 192.667C510.113 192.667 506.483 192.81 502.85 192.93L502.516 192.452C503.4 188.482 507.772 171.578 507.772 168.422C507.772 167.489 507.438 164.859 504.354 164.859C503.136 164.859 501.129 165.194 498.909 167.083C498.646 171.458 494.942 186.068 493.937 192.26L493.461 192.667C489.828 192.739 486.195 192.81 482.636 192.93L482.302 192.38C482.852 189.487 487.342 172.128 487.342 168.35C487.342 166.317 486.34 164.859 483.975 164.859C482.828 164.859 480.939 165.266 479.006 167.011L476.712 177.101C475.636 181.955 474.418 187.454 473.558 192.236L473.149 192.643C469.445 192.643 465.745 192.786 462.111 192.906L461.777 192.428C464.26 183.079 468.707 162.946 469.04 158.451L469.52 158.045C473.149 157.495 477.117 156.897 480.821 156.156L481.226 156.634L480.342 160.603C483.378 158.045 487.342 156.227 491.309 156.227C493.724 156.227 496.828 157.04 498.501 161.081C503.281 157.232 507.508 156.299 510.211 156.299C512.505 156.299 519.697 156.849 519.697 164.907C519.697 165.983 519.434 167.872 518.621 171.578L517.211 178.034C516.205 182.744 515.251 187.526 514.32 192.236L513.84 192.643L513.817 192.667Z" fill="#560B18"/>
<path d="M554.586 192.673C550.811 192.745 548.206 192.745 544.431 192.936L544.097 192.458L544.573 189.493C542.9 191.238 539.459 193.39 534.898 193.39C526.892 193.39 523.738 186.935 523.738 180.479C523.738 174.023 526.032 169.576 527.513 167.233C533.774 157.406 543.45 156.999 550.713 156.999H562.135L562.544 157.549C557.5 178.614 556.235 184.137 555.088 192.267L554.609 192.673H554.586ZM549.95 164.483C549.353 164.411 548.945 164.411 547.872 164.411C538.602 164.411 535.421 173.832 535.421 179.02C535.421 184.209 537.907 185.763 540.727 185.763C541.206 185.763 543.689 185.572 545.578 183.683C547.322 177.155 548.395 171.106 549.95 164.507" fill="#560B18"/>
<path d="M581.537 192.671C578.717 193.34 576.281 193.412 575.35 193.412C567.679 193.412 565.267 190.112 565.267 185.545C565.267 182.987 566.006 179.831 567.49 173.901L569.784 164.624H569.042C567.561 164.624 566.485 164.696 565.075 164.767L564.67 164.289C565.409 161.802 565.888 159.985 566.556 157.498L567.035 157.092H571.552C572.291 153.936 572.817 151.712 573.438 148.484L573.917 148.006C578.026 147.073 580.917 146.332 584.931 145.113L585.336 145.591C584.789 147.48 584.452 149.154 582.374 157.307C584.931 157.235 586.746 157.235 589.303 157.116L589.566 157.666C588.682 160.081 588.085 161.826 587.488 164.385L586.891 164.791C584.597 164.719 582.995 164.719 580.701 164.719L577.884 176.507C577.213 179.328 576.615 181.887 576.615 182.891C576.615 184.111 577.358 185.641 579.986 185.641C581.73 185.641 582.948 185.091 583.69 184.828L584.094 185.163C583.281 187.793 582.829 189.61 582.087 192.168L581.612 192.694L581.537 192.671Z" fill="#560B18"/>
<path d="M602.614 175.565L601.538 180.538C600.725 184.436 600.057 188.333 599.386 192.326L598.91 192.661C595.014 192.661 591.097 192.733 587.275 192.924L586.938 192.446C588.493 186.516 589.974 180.466 591.313 174.417L592.052 171.118C592.983 166.957 593.867 162.701 594.346 158.541L594.825 158.063C598.789 157.513 602.756 156.915 606.652 156.174L607.057 156.724C605.505 162.773 603.95 169.229 602.614 175.565ZM610.427 140.847C609.83 143.884 609.017 146.849 608.275 149.79L607.725 150.339C604.095 150.818 600.462 151.344 596.758 151.894L596.353 151.344C597.021 148.379 597.692 145.342 598.313 142.329L598.91 141.851C602.54 141.373 606.699 140.776 609.995 140.369L610.404 140.847H610.427Z" fill="#560B18"/>
<path d="M629.977 156.285C634.208 156.285 645.387 158.031 645.387 170.751C645.387 184.141 637.935 193.561 624.816 193.561C611.7 193.561 608.734 185.145 608.734 178.88C608.734 174.433 610.553 156.261 629.977 156.261M625.008 186.412C632.126 186.412 634.231 174.098 634.231 169.244C634.231 166.949 633.56 163.387 629.188 163.387C621.112 163.387 619.965 178.331 619.965 180.411C619.965 184.977 622.451 186.388 625.008 186.388" fill="#560B18"/>
<path d="M666.71 156.627L665.827 160.333C667.044 159.4 671.201 156.292 676.456 156.292C679.088 156.292 685.467 157.296 685.467 165.162C685.467 169.275 680.687 189.193 680.353 192.349L679.874 192.683C676.17 192.755 672.54 192.827 668.907 192.946L668.643 192.468C670.199 185.271 673.542 172.336 673.542 168.701C673.542 166.478 672.206 164.876 669.838 164.876C667.881 164.876 666.063 165.88 664.582 166.956C662.696 175.372 660.139 187.351 659.279 192.253L658.8 192.66C655.096 192.66 651.395 192.803 647.714 192.923L647.451 192.444C648.669 187.184 654.046 165.378 654.451 158.516L655.001 157.965C659.039 157.44 662.598 156.818 666.302 156.077L666.71 156.555V156.627Z" fill="#560B18"/>
<mask id="mask0_1134_510" style="mask-type:luminance" maskUnits="userSpaceOnUse" x="0" y="17" width="686" height="254">
<path d="M685.469 17.8691H0.00195312V270.171H685.469V17.8691Z" fill="white"/>
</mask>
<g mask="url(#mask0_1134_510)">
<path d="M286.133 53.2561C290.864 65.8329 290.41 83.1679 286.874 97.1794C283.456 110.569 277.842 122.237 271.868 132.662C247.138 175.749 208.31 204.824 169.626 232.727C167.07 229.499 165.469 225.841 163.246 221.657C162.363 220.031 161.192 218.118 160.069 216.014C159.184 214.412 157.321 211.758 157.249 210.204C157.154 208.171 160.093 203.843 161.383 201.572C183.747 161.092 206.375 118.34 228.74 78.6012C233.996 78.2902 240.519 78.2902 245.8 78.6012C246.875 82.4267 247.21 86.6112 247.687 90.7954C248.595 99.1161 249.36 107.819 250.316 116.332C250.746 120.492 250.435 124.82 252.203 128.335C256.576 127.378 259.372 123.146 261.952 119.703C269.837 109.182 276.121 95.7686 277.889 79.5336C280.518 55.3602 267.137 40.0816 247.496 36.1603C235.764 33.817 223.913 35.4191 213.925 37.8578C193.448 42.8314 177.726 50.6022 161.574 60.19C155.72 63.6569 150.033 67.0763 144.322 71.0692C142.53 72.3127 140.308 74.5365 138.684 74.6319C137.083 74.7277 134.837 73.3409 132.878 72.5758C127.334 70.4238 120.835 68.9412 113.189 68.8218C102.676 68.6544 94.4801 71.5476 86.7383 73.317C87.8613 70.6391 90.7284 69.3477 92.927 67.6981C108.314 56.0777 125.948 45.5811 144.705 37.0927C166.472 27.2657 190.103 19.3274 219.755 17.9406C253.04 16.3864 277.196 29.4893 286.157 53.2322" fill="#560B18"/>
</g>
<mask id="mask1_1134_510" style="mask-type:luminance" maskUnits="userSpaceOnUse" x="0" y="0" width="686" height="271">
<path d="M685.469 0H0.00195312V270.163H685.469V0Z" fill="white"/>
</mask>
<g mask="url(#mask1_1134_510)">
<path d="M261.534 232.21C262.155 239.24 263.445 246.365 262.848 252.677C261.223 253.562 258.26 253.251 254.963 253.251C252.215 253.251 248.559 253.658 247.078 252.677C246.002 251.984 244.569 248.445 243.709 246.676C237.353 234.027 231.762 222.55 225.143 210.069C224.044 208.061 222.133 205.096 222.324 203.685C222.563 201.772 225.406 201.151 226.266 199.74C236.015 191.156 244.903 181.711 253.649 172.148C255.847 170.235 255.895 174.084 256.086 175.71C257.973 194.671 259.813 213.417 261.534 232.21Z" fill="#560B18"/>
</g>
<mask id="mask2_1134_510" style="mask-type:luminance" maskUnits="userSpaceOnUse" x="0" y="17" width="686" height="254">
<path d="M685.469 17.8428H0.00195312V270.144H685.469V17.8428Z" fill="white"/>
<mask id="mask3_1134_510" style="mask-type:luminance" maskUnits="userSpaceOnUse" x="0" y="27" width="686" height="253">
<path d="M685.497 27.4102H0.0292969V279.712H685.497V27.4102Z" fill="white"/>
</mask>
<g mask="url(#mask3_1134_510)">
<path d="M286.158 62.8501C290.889 75.4268 290.435 92.7618 286.899 106.773C283.482 120.163 277.867 131.831 271.894 142.256C247.164 185.342 208.336 214.417 169.652 242.321C167.095 239.093 165.494 235.435 163.272 231.25C162.388 229.624 161.217 227.711 160.094 225.607C159.21 224.006 157.346 221.351 157.275 219.797C157.179 217.765 160.118 213.437 161.408 211.166C183.773 170.685 206.4 127.934 228.765 88.1948C234.022 87.8841 240.545 87.8841 245.825 88.1948C246.9 92.0203 247.235 96.2048 247.713 100.389C248.621 108.71 249.386 117.413 250.341 125.925C250.771 130.086 250.461 134.413 252.229 137.928C256.602 136.972 259.397 132.74 261.978 129.297C269.862 118.776 276.147 105.362 277.915 89.1272C280.543 64.9541 267.163 49.6752 247.522 45.7542C235.79 43.411 223.938 45.0127 213.951 47.4517C193.474 52.4249 177.752 60.1958 161.599 69.7839C155.746 73.2509 150.059 76.6699 144.348 80.6631C142.556 81.9062 140.334 84.1301 138.709 84.2259C137.108 84.3213 134.862 82.9345 132.903 82.1694C127.36 80.0174 120.86 78.5351 113.214 78.4154C102.701 78.248 94.5055 81.1415 86.7637 82.9105C87.8867 80.2327 90.7542 78.9416 92.9523 77.2916C108.34 65.6713 125.973 55.1747 144.73 46.6866C166.498 36.8593 190.129 28.9211 219.781 27.5344C253.065 25.9802 277.222 39.0831 286.182 62.8261" fill="white"/>
</g>
</mask>
<g mask="url(#mask2_1134_510)">
<path d="M168.145 246.458C169.053 248.012 170.295 249.782 170.2 251.718C168.814 253.679 165.038 253.033 162.123 253.033C158.993 253.033 155.433 253.512 152.924 252.842C151.323 252.436 148.91 250.212 147.118 248.706C127.334 232.495 107.526 216.331 87.6464 200.455C80.2868 194.597 72.832 189.121 66.0702 182.809C65.7355 179.39 65.7595 174.775 66.0702 171.356C82.0072 167.1 94.5516 159.807 105.28 149.765C110.345 145.007 114.837 139.555 118.78 132.86C122.436 126.596 126.402 119.088 125.709 109.404C124.682 95.3452 113.643 88.387 98.6851 88.387C87.0968 88.387 78.7339 92.4517 70.1798 95.895C67.5275 96.9709 64.4216 99.2186 61.1719 97.7839C61.8887 95.895 63.8481 94.6516 65.4967 93.456C76.3685 85.5178 91.2064 77.4123 108.649 76.3841C137.202 74.6866 153.474 92.6194 156.102 117.319C159.161 146.394 144.848 165.785 127.023 175.708C140.524 199.546 154.262 222.859 168.097 246.482" fill="#560B18"/>
<path d="M129.13 245.686C130.874 247.121 132.547 248.292 133.622 250.014C121.77 255.154 109.011 258.645 94.9854 261.084C80.6727 263.547 64.401 264.336 49.5869 261.658C22.6107 256.78 2.6832 241.095 0.246024 211.542C-1.04424 196.24 2.46816 181.439 7.17525 169.484C11.954 157.29 18.1903 147.056 25.1913 137.755C39.2647 119.033 56.2773 102.081 85.595 98.7093C94.1012 97.753 101.699 99.6418 106.789 103.587C107.912 104.472 110.922 106.624 110.731 108.082C110.54 109.421 106.048 111.43 104.543 112.41C89.9677 121.879 75.6789 133.212 63.8278 144.522C53.2904 154.923 43.4462 165.539 35.4895 178.689C28.2019 190.716 20.1018 210.705 27.9868 226.749C37.9268 247.049 68.3196 251.783 97.948 247.408C104.328 246.475 111.185 245.28 117.661 243.654C119.811 243.128 122.224 242.004 123.849 242.147C125.593 242.339 127.696 244.562 129.106 245.71" fill="#560B18"/>
</g>
</svg>
